<?xml version="1.0" standalone="no"?>
<!DOCTYPE svg PUBLIC "-//W3C//DTD SVG 20010904//EN"
 "http://www.w3.org/TR/2001/REC-SVG-20010904/DTD/svg10.dtd">
<svg version="1.0" xmlns="http://www.w3.org/2000/svg"
 width="300.000000pt" height="300.000000pt" viewBox="0 0 300.000000 300.000000"
 preserveAspectRatio="xMidYMid meet">
<metadata>
Created by potrace 1.10, written by Peter Selinger 2001-2011
</metadata>
<g transform="translate(0.000000,300.000000) scale(0.100000,-0.100000)"
fill="#000000" stroke="none">
<path d="M2053 1734 c-42 -21 -66 -78 -52 -126 12 -47 39 -69 91 -75 23 -4 56
-15 73 -25 33 -20 65 -24 65 -8 0 6 -6 10 -13 10 -7 0 -22 7 -34 15 l-22 15
24 37 c14 20 25 47 25 60 0 40 -29 84 -65 99 -43 18 -52 17 -92 -2z m80 -15
c42 -19 60 -86 36 -132 -16 -30 -28 -37 -66 -37 -55 0 -94 57 -79 115 14 55
59 77 109 54z"/>
<path d="M805 1635 c0 -96 2 -105 19 -105 17 0 18 6 13 50 -3 28 -4 50 -1 50
3 0 26 -22 51 -50 25 -27 51 -50 59 -50 8 0 14 1 14 3 0 2 -23 27 -50 57 l-51
55 50 48 c29 28 43 47 34 47 -9 0 -33 -20 -55 -45 -22 -25 -43 -45 -48 -45 -4
0 -5 20 -2 45 4 39 2 45 -14 45 -17 0 -19 -9 -19 -105z"/>
<path d="M1045 1635 c0 -87 3 -105 15 -105 13 0 14 16 12 100 -4 107 0 116 49
90 36 -20 18 -80 -23 -80 -15 0 -11 -10 23 -55 23 -30 48 -55 55 -55 21 0 17
9 -21 52 l-36 39 25 30 c41 48 16 89 -53 89 l-46 0 0 -105z"/>
<path d="M1260 1732 c0 -5 25 -7 55 -4 30 2 55 2 55 -2 0 -3 -27 -48 -60 -99
l-59 -92 76 -3 c54 -2 79 1 84 10 13 20 11 34 -3 20 -7 -7 -36 -12 -65 -12
l-53 0 53 83 c29 45 56 88 61 95 5 9 -11 12 -68 12 -42 0 -76 -4 -76 -8z"/>
<path d="M1502 1635 c-2 -83 0 -105 11 -105 11 0 12 18 9 85 -3 47 -2 85 1 85
2 0 19 -36 38 -80 18 -44 36 -80 40 -80 4 0 11 9 14 20 4 12 20 49 36 83 l29
62 -2 -88 c-3 -72 0 -87 12 -87 12 0 15 18 15 105 0 88 -2 105 -16 105 -10 0
-27 -29 -49 -81 l-34 -81 -33 73 c-18 39 -33 76 -33 80 0 5 -8 9 -17 9 -16 0
-18 -13 -21 -105z"/>
<path d="M1780 1725 c0 -12 4 -13 19 -5 11 5 27 10 37 10 14 0 16 -11 12 -100
-3 -85 -1 -100 12 -100 13 0 14 15 12 100 -4 93 -2 100 15 100 10 0 24 -5 31
-12 9 -9 12 -8 12 5 0 14 -11 17 -75 17 -61 0 -75 -3 -75 -15z"/>
<path d="M1188 1445 c-9 -16 -21 -57 -28 -90 -7 -33 -15 -65 -17 -72 -3 -7 0
-13 6 -13 6 0 11 7 11 15 0 8 8 15 18 15 10 0 22 3 26 7 11 12 40 12 53 2 8
-8 16 -5 25 10 18 30 28 26 22 -9 -7 -32 6 -40 26 -15 7 8 20 15 30 15 10 0
28 15 40 33 17 26 20 27 14 8 -5 -19 -3 -23 10 -18 26 10 18 -13 -18 -53 -50
-55 -61 -79 -41 -86 22 -9 62 31 76 75 13 41 29 63 29 40 1 -10 5 -9 15 5 9
12 15 15 15 7 0 -9 4 -10 13 -3 6 5 21 6 32 2 11 -4 26 -5 33 -3 6 3 12 0 12
-7 0 -7 6 -10 14 -7 12 5 12 0 5 -26 -11 -38 -12 -83 -1 -73 4 4 7 11 8 14 5
62 18 133 21 122 11 -38 13 -41 25 -33 30 18 40 12 34 -20 -25 -123 -14 -145
19 -38 l18 61 40 -5 c40 -5 77 13 77 38 0 6 -11 0 -25 -13 -18 -17 -25 -19
-25 -9 0 8 5 20 11 26 6 6 9 17 7 25 -3 8 -12 -1 -22 -21 -13 -24 -20 -30 -26
-21 -4 7 -13 9 -20 5 -9 -5 -11 -4 -6 3 4 7 3 12 -2 12 -5 0 -14 -15 -20 -32
l-12 -33 6 38 c6 42 -7 48 -33 17 -20 -23 -38 -27 -30 -6 3 8 1 16 -5 18 -6 2
-8 13 -4 25 6 19 16 23 64 26 l57 3 -57 2 c-52 2 -56 4 -50 24 3 14 2 19 -6
14 -7 -4 -12 -14 -12 -22 0 -9 -12 -15 -32 -15 -31 -2 -31 -2 -5 -6 29 -5 36
-28 17 -64 -14 -25 -34 -25 -27 1 6 24 -10 26 -35 3 -12 -11 -18 -12 -18 -3 0
6 -6 10 -14 7 -7 -3 -19 0 -25 6 -8 8 -15 6 -25 -8 -12 -16 -16 -17 -30 -6 -9
7 -16 20 -16 27 0 23 -17 16 -41 -18 -20 -27 -23 -29 -29 -13 -5 15 -10 13
-28 -16 l-21 -34 6 39 c4 28 3 37 -5 32 -8 -5 -10 -2 -6 8 3 9 1 16 -5 16 -7
0 -14 -7 -16 -15 -16 -51 -16 -50 -25 -35 -5 8 -6 18 -4 22 11 17 -25 7 -38
-10 -21 -30 -37 -35 -30 -10 3 14 2 19 -6 14 -16 -10 -15 -5 8 55 23 58 21 90
-2 44z m234 -192 c-14 -25 -52 -59 -52 -45 0 13 51 74 57 68 3 -2 0 -13 -5
-23z"/>
<path d="M2013 1390 c-120 -22 -143 -28 -143 -41 0 -11 -4 -12 53 6 72 22 286
47 334 40 24 -3 56 -17 72 -31 16 -13 32 -20 35 -15 7 10 -7 22 -51 45 -42 21
-166 20 -300 -4z"/>
<path d="M1018 1264 c-85 -30 -237 -64 -285 -64 -21 0 -53 9 -71 20 -37 23
-42 24 -42 10 0 -19 60 -40 115 -40 92 0 354 64 370 90 9 14 -11 10 -87 -16z"/>
</g>
</svg>
