<svg id="visual" viewBox="0 0 1920 1080" width="1920" height="1080" xmlns="http://www.w3.org/2000/svg" xmlns:xlink="http://www.w3.org/1999/xlink" version="1.1"><g stroke-width="1" stroke-linejoin="bevel"><path d="M900 653L992 378L485 447Z" fill="#112142" stroke="#112142"></path><path d="M485 447L532 663L900 653Z" fill="#101b30" stroke="#101b30"></path><path d="M992 378L939 0L485 447Z" fill="#142754" stroke="#142754"></path><path d="M939 0L394 0L485 447Z" fill="#36348a" stroke="#36348a"></path><path d="M900 653L1350 376L992 378Z" fill="#36348a" stroke="#36348a"></path><path d="M992 378L1384 0L939 0Z" fill="#7336b9" stroke="#7336b9"></path><path d="M532 663L906 1080L900 653Z" fill="#5c37ab" stroke="#5c37ab"></path><path d="M900 653L1414 739L1350 376Z" fill="#1b2c67" stroke="#1b2c67"></path><path d="M0 684L517 1080L532 663Z" fill="#7336b9" stroke="#7336b9"></path><path d="M532 663L517 1080L906 1080Z" fill="#36348a" stroke="#36348a"></path><path d="M0 684L532 663L485 447Z" fill="#101b30" stroke="#101b30"></path><path d="M906 1080L1414 739L900 653Z" fill="#36348a" stroke="#36348a"></path><path d="M394 0L0 288L485 447Z" fill="#7336b9" stroke="#7336b9"></path><path d="M0 288L0 684L485 447Z" fill="#a428d2" stroke="#a428d2"></path><path d="M1350 376L1384 0L992 378Z" fill="#8b31c6" stroke="#8b31c6"></path><path d="M1920 307L1384 0L1350 376Z" fill="#48369b" stroke="#48369b"></path><path d="M394 0L0 0L0 288Z" fill="#5c37ab" stroke="#5c37ab"></path><path d="M906 1080L1453 1080L1414 739Z" fill="#273179" stroke="#273179"></path><path d="M1920 627L1920 307L1350 376Z" fill="#112142" stroke="#112142"></path><path d="M0 684L0 1080L517 1080Z" fill="#48369b" stroke="#48369b"></path><path d="M1920 627L1350 376L1414 739Z" fill="#48369b" stroke="#48369b"></path><path d="M1920 1080L1920 627L1414 739Z" fill="#101b30" stroke="#101b30"></path><path d="M1920 307L1920 0L1384 0Z" fill="#48369b" stroke="#48369b"></path><path d="M1453 1080L1920 1080L1414 739Z" fill="#48369b" stroke="#48369b"></path></g></svg>